<?xml version="1.0" encoding="UTF-8"?>
<svg id="Camada_1" data-name="Camada 1" xmlns="http://www.w3.org/2000/svg" viewBox="0 0 375.78 375.73">
  <defs>
    <style>
      .cls-1 {
        fill: #debb74;
      }
    </style>
  </defs>
  <path class="cls-1" d="M222.57,107.37l-15.46-47.85c24.62,3.63,47,14.21,65.08,29.67l22.75-8.34c-23.39-23.46-54.5-39.26-89.18-43.34-3.68-.43-6.74-3.04-7.88-6.57L187.87,0v187.87l45.88-45.88-11.19-34.62h.01Z"/>
  <path class="cls-1" d="M187.87,187.87l45.88,45.88,34.66-11.19,1.83-.58,45.99-14.89c-.51,3.49-1.15,6.92-1.97,10.31-4.75,20.55-14.41,39.2-27.67,54.73l8.34,22.76c21.33-21.3,36.32-48.94,41.92-79.83.54-3.05,1-6.15,1.37-9.28.44-3.69,3.03-6.77,6.57-7.91l30.99-10.01h-187.91,0Z"/>
  <path class="cls-1" d="M107.33,153.18l-18.14-49.48-.03-.1c-14.3,16.75-24.44,37.17-28.73,59.67-.65,3.38-3.17,6.1-6.45,7.16l-17.04,5.5L0,187.87h187.87l-45.88-45.88-34.66,11.19h0Z"/>
  <path class="cls-1" d="M153.18,268.38l-49.55,18.14-.07.03c16.75,14.33,37.2,24.47,59.7,28.76,3.38.65,6.1,3.17,7.16,6.45l5.5,17.04,11.94,36.93v-187.87l-45.88,45.88,11.19,34.62v.02Z"/>
  <path class="cls-1" d="M233.76,233.76l-11.19,34.62,49.61,18.18c-18.08,15.46-40.46,26.04-65.08,29.67l-7.29,22.59c37.07-2.88,70.4-19.13,95.12-43.92l-15.29-15.26-45.88-45.88h0Z"/>
  <path class="cls-1" d="M233.76,141.99l34.66,11.19,18.18-49.58c15.43,18.08,26.01,40.42,29.64,65.04l22.59,7.29c-2.88-37.03-19.09-70.33-43.88-95.09l-15.29,15.26-45.88,45.88h-.02Z"/>
  <path class="cls-1" d="M168.65,59.52l7.29-22.59,3.66-11.36-22.68,33.79c-1.27,1.9-3.19,3.24-5.38,3.88-16.19,4.71-31.08,12.49-43.98,22.67-2.58,2.04-6.06,2.52-9.14,1.39l-17.6-6.45,15.33,15.33,45.85,45.82,11.19-34.62,15.46-47.85h0Z"/>
  <path class="cls-1" d="M59.52,207.1l-22.59-7.29-11.36-3.66,33.79,22.68c1.9,1.27,3.24,3.19,3.88,5.38,4.71,16.19,12.48,31.05,22.64,43.94,2.03,2.58,2.52,6.05,1.39,9.14l-6.46,17.61,15.29-15.26v-.03l.03-.03,45.85-45.82-34.66-11.19-47.82-15.46h.02Z"/>
</svg>